HIERARCHY
ROOT hip
{
	OFFSET 0.000000 0.000000 0.000000 
	CHANNELS 6 Xposition Yposition Zposition Xrotation Zrotation Yrotation
	JOINT abdomen
	{
		OFFSET 0.000000 3.402643 0.000000 
		CHANNELS 3 Xrotation Zrotation Yrotation
		JOINT chest
		{
			OFFSET 0.000000 8.438565 -0.680529 
			CHANNELS 3 Xrotation Zrotation Yrotation
			JOINT neck
			{
				OFFSET 0.000000 10.207942 -0.272212 
				CHANNELS 3 Xrotation Zrotation Yrotation
				JOINT head
				{
					OFFSET 0.000000 3.130431 0.000000 
					CHANNELS 3 Xrotation Zrotation Yrotation
					End Site
					{
						OFFSET 0.000000 3.130435 0.000000 
					}
				}
			}
			JOINT lCollar
			{
				OFFSET 3.470700 6.669187 -0.816635 
				CHANNELS 3 Yrotation Zrotation Xrotation
				JOINT lShldr
				{
					OFFSET 3.198488 0.000000 0.000000 
					CHANNELS 3 Zrotation Yrotation Xrotation
					JOINT lForeArm
					{
						OFFSET 10.139888 0.000000 0.000000 
						CHANNELS 3 Yrotation Zrotation Xrotation
						JOINT lHand
						{
							OFFSET 8.370511 0.000000 0.000000 
							CHANNELS 3 Zrotation Yrotation Xrotation
							End Site
							{
								OFFSET 4.083176 0.000000 0.000000 
							}
						}
					}
				}
			}
			JOINT rCollar
			{
				OFFSET -3.470700 6.669187 -0.816635 
				CHANNELS 3 Yrotation Zrotation Xrotation
				JOINT rShldr
				{
					OFFSET -3.198488 0.000000 0.000000 
					CHANNELS 3 Zrotation Yrotation Xrotation
					JOINT rForeArm
					{
						OFFSET -10.139888 0.000000 0.000000 
						CHANNELS 3 Yrotation Zrotation Xrotation
						JOINT rHand
						{
							OFFSET -8.370511 0.000000 0.000000 
							CHANNELS 3 Zrotation Yrotation Xrotation
							End Site
							{
								OFFSET -4.083176 0.000000 0.000000 
							}
						}
					}
				}
			}
		}
	}
	JOINT lThigh
	{
		OFFSET 5.308129 -1.633274 1.361059 
		CHANNELS 3 Xrotation Zrotation Yrotation
		JOINT lShin
		{
			OFFSET -2.041588 -20.007561 0.000000 
			CHANNELS 3 Xrotation Zrotation Yrotation
			JOINT lFoot
			{
				OFFSET 0.000000 -19.190928 -1.224953 
				CHANNELS 3 Xrotation Yrotation Zrotation
				End Site
				{
					OFFSET 0.000000 -2.449906 4.627600 
				}
			}
		}
	}
	JOINT rThigh
	{
		OFFSET -5.308129 -1.633274 1.361059 
		CHANNELS 3 Xrotation Zrotation Yrotation
		JOINT rShin
		{
			OFFSET 2.041588 -20.007561 0.000000 
			CHANNELS 3 Xrotation Zrotation Yrotation
			JOINT rFoot
			{
				OFFSET 0.000000 -19.190928 -1.224953 
				CHANNELS 3 Xrotation Yrotation Zrotation
				End Site
				{
					OFFSET 0.000000 -2.449906 4.627600 
				}
			}
		}
	}
}
MOTION
Frames: 10
Frame Time: 0.033333
-20.233772 49.085323 6.272654 -0.342513 1.606377 4.493978 0.000000 0.000000 0.000000 -6.885391 -0.970677 0.523362 -0.353030 -0.068344 1.230468 18.827728 -5.418192 1.451763 -6.730143 -0.261287 -5.751741 -83.920425 -59.575703 29.718508 -75.534035 -1.109047 -3.582242 38.662571 6.477014 -2.446682 6.316045 7.903010 -5.997118 45.750729 66.485100 23.138445 67.913956 -2.463125 -22.677118 -51.083782 -2.516492 -3.912270 -1.132419 8.286180 4.639159 14.806112 -2.225102 5.891798 -11.420853 0.905713 -8.807591 2.293691 -14.138638 -12.453963 13.900702 3.228630 2.861654 -13.182195 -0.994498 8.790451 
-20.229755 49.066269 6.277259 -0.442934 1.557615 4.533023 0.000000 0.000000 0.000000 -6.738979 -1.002601 0.496951 -0.518776 -0.058582 1.171874 18.053949 -4.871576 1.411121 -6.707102 -0.347066 -5.625995 -84.957733 -59.202900 27.258396 -75.920242 -1.128944 -4.316431 34.930687 4.748972 -3.100319 6.440915 8.235290 -5.883433 45.484863 65.026871 18.564798 68.454567 -2.279159 -22.784954 -46.572628 -2.779689 -3.756649 -1.200804 8.381584 4.663914 15.167603 -2.237693 5.810465 -11.613040 0.927961 -8.811514 2.284766 -14.091208 -12.439029 14.122015 3.228194 2.847291 -13.299793 -1.002455 8.810734 
-20.240435 49.066185 6.260736 -0.428398 1.576826 4.650435 0.000000 0.000000 0.000000 -6.709771 -1.044248 0.471460 -0.540471 -0.195284 0.986323 16.941353 -4.666907 1.224601 -6.728265 -0.368021 -5.596673 -84.824425 -59.198227 24.911697 -75.962318 -1.222593 -4.455443 33.718044 4.413958 -3.203823 6.184052 7.923371 -5.822467 46.252659 64.686745 15.217972 66.990868 -1.884395 -20.411703 -44.690060 -1.996193 -4.056951 -1.230242 8.413611 4.695149 15.170950 -2.277529 5.532839 -11.617407 0.901429 -8.738111 2.272642 -14.065224 -12.406636 14.145394 3.179980 2.755929 -13.321490 -1.025069 8.821165 
-20.234743 49.075478 6.252975 -0.454442 1.683539 4.797151 0.000000 0.000000 0.000000 -6.690496 -1.139488 0.294088 -0.463164 -0.302706 0.791005 15.963619 -4.647346 1.244068 -6.879744 -0.412054 -5.595035 -84.033180 -59.073277 22.225050 -76.227852 -1.150178 -3.377664 36.287331 5.441458 -2.855773 6.063637 7.896267 -5.822288 47.881004 64.589600 12.278627 66.272263 -1.207730 -21.862909 -50.116951 -2.120363 -4.073840 -1.151761 8.263916 4.627962 14.928621 -2.258496 5.598303 -11.429876 0.861525 -8.753817 2.371250 -14.195335 -12.523338 14.110161 3.209937 2.717571 -13.308994 -1.017332 8.835919 
-20.236656 49.081604 6.243168 -0.440429 1.702780 4.885005 0.000000 0.000000 0.000000 -6.739383 -1.163528 0.247315 -0.472159 -0.312481 0.624991 15.530720 -4.676786 1.155673 -6.965790 -0.184210 -5.622759 -84.311333 -58.748314 21.210491 -76.795959 -1.232687 -4.657720 40.549759 6.429336 -2.417596 6.090158 7.987262 -5.872981 49.491745 64.158112 9.869116 66.842056 -1.023324 -24.913122 -50.762295 -1.436279 -4.400481 -1.151950 8.245663 4.607275 14.841567 -2.287948 5.512429 -11.351761 0.876624 -8.679455 2.410740 -14.205347 -12.605741 14.052815 3.247438 2.688888 -13.280744 -0.999301 8.800874 
-20.242174 49.076336 6.232393 -0.383212 1.683296 4.894764 0.000000 0.000000 0.000000 -6.817385 -1.096391 0.231160 -0.494148 -0.458947 0.732398 15.069016 -4.579053 1.214089 -6.922296 -0.131205 -5.691063 -84.391724 -58.712368 23.097677 -77.371376 -1.171903 -6.436465 45.209900 7.431790 -1.880176 6.128491 7.801211 -5.928844 50.191624 64.565399 11.571752 67.378334 -1.311606 -24.783487 -54.023346 -2.846971 -3.777955 -1.230469 8.290392 4.618045 14.928049 -2.267007 5.353618 -11.426702 0.862409 -8.698921 2.294360 -14.219070 -12.570123 14.137850 3.267446 2.715770 -13.305406 -1.025760 8.787770 
-20.245676 49.076981 6.229720 -0.422475 1.615534 4.748057 0.000000 0.000000 0.000000 -6.816966 -0.899333 0.447954 -0.411599 -0.722569 0.888724 14.365587 -4.296172 1.037368 -6.737630 -0.151898 -5.673865 -83.708954 -59.198410 27.679884 -77.368042 -0.874062 -6.126673 43.486496 7.500670 -1.910884 6.046419 7.242915 -5.892429 48.684223 65.394028 16.595306 68.137306 -2.119030 -23.104445 -49.826839 -3.604485 -3.408556 -1.181612 8.375031 4.663695 14.982326 -2.306008 5.374913 -11.494637 0.889002 -8.665609 2.292113 -14.143198 -12.533687 14.095284 3.277256 2.723879 -13.243602 -0.999699 8.778041 
-20.238195 49.079964 6.226192 -0.342638 1.674184 4.640682 0.000000 0.000000 0.000000 -6.924828 -1.132135 0.371867 -0.384961 -0.312473 0.751942 13.606043 -4.491182 1.214101 -6.727955 0.054864 -5.770750 -80.629219 -59.955006 31.634489 -77.496567 -0.435265 -5.306594 39.790592 6.780005 -2.320372 6.353633 7.924799 -6.036605 44.243599 66.604843 21.554968 69.296234 -3.151869 -21.700077 -45.607395 -2.867417 -3.732175 -1.200416 8.282775 4.658380 14.867859 -2.313707 5.527247 -11.436150 0.860372 -8.700165 2.167332 -14.287483 -12.598269 14.157410 3.374636 2.923121 -13.251513 -0.991630 8.695091 
-20.235657 49.075947 6.222136 -0.267841 1.694043 4.474739 0.000000 0.000000 0.000000 -6.954110 -1.166961 0.522296 -0.414232 -0.302707 0.771474 12.720429 -4.227716 1.116011 -6.760207 -0.063734 -5.818997 -78.452599 -59.787014 30.514368 -78.266327 -0.120962 -2.697280 43.342354 6.666496 -2.249943 6.484051 7.819873 -6.062619 41.371902 66.092415 21.086525 70.612236 -3.697177 -20.696495 -50.971653 -2.594682 -3.873253 -1.249650 8.236652 4.626211 14.866730 -2.315992 5.770710 -11.459290 0.880905 -8.701403 2.020129 -14.313801 -12.532283 14.234006 3.326566 3.059692 -13.301955 -0.991080 8.685323 
-20.281324 49.074059 6.246741 -0.588659 1.509339 4.337516 0.000000 0.000000 0.000000 -6.631642 -1.107321 0.634368 -0.432933 -0.253886 0.732415 11.802399 -3.915513 0.919827 -6.963903 -0.078470 -5.525690 -77.160057 -59.622776 27.197304 -78.678963 -0.189518 -4.176266 37.807411 6.192478 -2.576322 6.529163 7.933646 -5.759818 40.039917 64.971489 17.276533 71.290535 -3.598879 -20.347132 -45.516701 -2.254702 -3.963939 -0.938104 8.593760 4.892746 15.057482 -2.393997 5.370354 -11.603535 0.928648 -8.724162 2.333616 -13.983395 -12.362759 14.112748 3.208717 2.951752 -13.238903 -0.989808 8.717640 
